<svg xmlns="http://www.w3.org/2000/svg" xmlns:xlink="http://www.w3.org/1999/xlink" width="81.92" height="65.919" version="1.1" viewBox="0 0 2167 1744" xml:space="preserve" style="shape-rendering:geometricPrecision;text-rendering:geometricPrecision;image-rendering:optimizeQuality;fill-rule:evenodd;clip-rule:evenodd"><defs><style type="text/css">.fil0{fill:#ac08c9}</style></defs><g id="Layer_x0020_1"><metadata id="CorelCorpID_0Corel-Layer"/><path d="M45 -1l2123 0 -436 437 -1687 0c-25,0 -46,-21 -46,-46l0 -346c0,-25 21,-45 46,-45zm0 1310l814 0 -437 436 -377 0c-25,0 -46,-20 -46,-45l0 -346c0,-25 21,-45 46,-45zm1122 0l1001 0 -436 436 -1001 0 436 -436zm-904 -655l1250 0 -436 436 -814 0c-25,0 -45,-20 -45,-45l0 -346c0,-25 20,-45 45,-45z" class="fil0"/></g></svg>