<svg xmlns="http://www.w3.org/2000/svg" xmlns:xlink="http://www.w3.org/1999/xlink" width="81.92" height="81.92" version="1.1" viewBox="0 0 2167 2167" xml:space="preserve" style="shape-rendering:geometricPrecision;text-rendering:geometricPrecision;image-rendering:optimizeQuality;fill-rule:evenodd;clip-rule:evenodd"><defs><style type="text/css">.fil2{fill:#fefefe}.fil1{fill:#8f00a8}.fil0{fill:#ac08c9}</style></defs><g id="Layer_x0020_1"><metadata id="CorelCorpID_0Corel-Layer"/><g id="_870193312"><circle cx="1084" cy="1084" r="1084" class="fil0"/><path d="M2162 980c4,34 5,69 5,104 0,598 -485,1083 -1083,1083 -67,0 -133,-6 -197,-17l-475 -527 2 1 3 2 2 1 2 2 3 1 3 0 3 1 2 0 237 0 135 -135 -255 -284 2 2 2 2 3 1 2 1 3 1 3 1 2 0 3 1 220 0 -377 -419 2 2 3 1 2 2 2 1 3 1 3 1 3 0 2 0 1058 0 273 -273 399 443z" class="fil1"/><path d="M432 537l1331 0 -273 273 -1058 0c-15,0 -28,-13 -28,-28l0 -217c0,-16 13,-28 28,-28zm0 820l511 0 -274 274 -237 0c-15,0 -28,-13 -28,-28l0 -217c0,-16 13,-29 28,-29zm704 0l627 0 -273 274 -628 0 274 -274zm-567 -410l784 0 -274 274 -510 0c-15,0 -28,-13 -28,-29l0 -217c0,-15 13,-28 28,-28z" class="fil2"/><path d="M432 537l1331 0 -273 273 -1058 0c-15,0 -28,-13 -28,-28l0 -217c0,-16 13,-28 28,-28zm0 820l511 0 -274 274 -237 0c-15,0 -28,-13 -28,-28l0 -217c0,-16 13,-29 28,-29zm704 0l627 0 -273 274 -628 0 274 -274zm-567 -410l784 0 -274 274 -510 0c-15,0 -28,-13 -28,-29l0 -217c0,-15 13,-28 28,-28z" class="fil2"/></g></g></svg>