<svg xmlns="http://www.w3.org/2000/svg" xmlns:xlink="http://www.w3.org/1999/xlink" width="163.839" height="163.839" version="1.1" viewBox="0 0 4335 4335" xml:space="preserve" style="shape-rendering:geometricPrecision;text-rendering:geometricPrecision;image-rendering:optimizeQuality;fill-rule:evenodd;clip-rule:evenodd"><defs><style type="text/css">.fil1{fill:#fefefe}.fil0{fill:#332c2b}</style></defs><g id="Layer_x0020_1"><metadata id="CorelCorpID_0Corel-Layer"/><circle cx="2167" cy="2167" r="2167" class="fil0"/><path d="M865 1073l2662 0 -547 547 -2115 0c-31,0 -57,-25 -57,-56l0 -434c0,-31 26,-57 57,-57zm0 1642l1020 0 -547 547 -473 0c-31,0 -57,-26 -57,-57l0 -434c0,-31 26,-56 57,-56zm1407 0l1255 0 -547 547 -1255 0 547 -547zm-1134 -821l1568 0 -547 547 -1021 0c-31,0 -56,-25 -56,-57l0 -433c0,-32 25,-57 56,-57z" class="fil1"/><path d="M865 1073l2662 0 -547 547 -2115 0c-31,0 -57,-25 -57,-56l0 -434c0,-31 26,-57 57,-57zm0 1642l1020 0 -547 547 -473 0c-31,0 -57,-26 -57,-57l0 -434c0,-31 26,-56 57,-56zm1407 0l1255 0 -547 547 -1255 0 547 -547zm-1134 -821l1568 0 -547 547 -1021 0c-31,0 -56,-25 -56,-57l0 -433c0,-32 25,-57 56,-57z" class="fil1"/></g></svg>