<svg xmlns="http://www.w3.org/2000/svg" xmlns:xlink="http://www.w3.org/1999/xlink" width="30.719" height="30.719" version="1.1" viewBox="0 0 813 813" xml:space="preserve" style="shape-rendering:geometricPrecision;text-rendering:geometricPrecision;image-rendering:optimizeQuality;fill-rule:evenodd;clip-rule:evenodd"><defs><style type="text/css">.fil2{fill:#fefefe}.fil1{fill:#8f00a8}.fil0{fill:#ac08c9}</style></defs><g id="Layer_x0020_1"><metadata id="CorelCorpID_0Corel-Layer"/><g id="_857396704"><circle cx="406" cy="406" r="406" class="fil0"/><path d="M811 367c1,13 2,26 2,39 0,225 -182,407 -407,407 -25,0 -49,-3 -73,-7l-178 -198 0 1 1 1 1 0 1 1 1 0 1 0 1 1 1 0 89 0 51 -51 -96 -106 1 0 1 1 0 0 1 1 1 0 1 0 1 1 1 0 83 0 -141 -157 0 0 1 1 1 1 1 0 1 0 1 1 1 0 1 0 397 0 102 -103 150 166z" class="fil1"/><path d="M162 201l499 0 -102 103 -397 0c-6,0 -10,-5 -10,-11l0 -81c0,-6 4,-11 10,-11zm0 308l191 0 -102 103 -89 0c-6,0 -10,-5 -10,-11l0 -81c0,-6 4,-11 10,-11zm264 0l235 0 -102 103 -236 0 103 -103zm-213 -154l294 0 -102 103 -192 0c-5,0 -10,-5 -10,-11l0 -81c0,-6 5,-11 10,-11z" class="fil2"/><path d="M162 201l499 0 -102 103 -397 0c-6,0 -10,-5 -10,-11l0 -81c0,-6 4,-11 10,-11zm0 308l191 0 -102 103 -89 0c-6,0 -10,-5 -10,-11l0 -81c0,-6 4,-11 10,-11zm264 0l235 0 -102 103 -236 0 103 -103zm-213 -154l294 0 -102 103 -192 0c-5,0 -10,-5 -10,-11l0 -81c0,-6 5,-11 10,-11z" class="fil2"/></g></g></svg>