<svg xmlns="http://www.w3.org/2000/svg" xmlns:xlink="http://www.w3.org/1999/xlink" width="163.839" height="45.119" version="1.1" viewBox="0 0 4335 1194" xml:space="preserve" style="shape-rendering:geometricPrecision;text-rendering:geometricPrecision;image-rendering:optimizeQuality;fill-rule:evenodd;clip-rule:evenodd"><defs><style type="text/css">.fil0,.fil1{fill:#ac08c9}.fil1{fill-rule:nonzero}</style></defs><g id="Layer_x0020_1"><metadata id="CorelCorpID_0Corel-Layer"/><g id="_870107648"><g><path d="M32 -1l1453 0 -299 299 -1154 0c-17,0 -31,-14 -31,-31l0 -237c0,-17 14,-31 31,-31z" class="fil0"/><path d="M32 896l557 0 -299 299 -258 0c-17,0 -31,-14 -31,-31l0 -237c0,-17 14,-31 31,-31zm768 0l685 0 -299 299 -685 0 299 -299z" class="fil0"/><path d="M181 447l856 0 -299 299 -557 0c-17,0 -31,-14 -31,-31l0 -237c0,-17 14,-31 31,-31z" class="fil0"/></g><polygon points="2067 903 2067 290 2409 290 2409 375 2166 375 2166 529 2409 529 2409 616 2166 616 2166 814 2409 814 2409 903" class="fil1"/><polygon points="2821 903 2452 903 2673 586 2474 586 2474 506 2821 506 2604 824 2821 824" class="fil1"/><path d="M3008 547l25 0c56,0 93,-6 111,-18 18,-12 28,-33 28,-64 0,-32 -10,-55 -30,-69 -20,-13 -56,-20 -109,-20l-25 0 0 171zm-6 81l0 275 -94 0 0 -613 151 0c45,0 78,3 99,8 21,5 39,13 55,24 19,14 34,33 45,57 11,24 16,51 16,80 0,29 -5,56 -16,80 -11,25 -26,44 -45,58 -16,11 -34,19 -55,24 -21,5 -54,7 -99,7l-20 0 -37 0z" class="fil1"/><polygon points="3365 903 3365 290 3464 290 3464 517 3766 517 3766 290 3865 290 3865 903 3766 903 3766 606 3464 606 3464 903" class="fil1"/><path d="M4068 547l25 0c56,0 92,-6 111,-18 18,-12 27,-33 27,-64 0,-32 -9,-55 -29,-69 -20,-13 -56,-20 -109,-20l-25 0 0 171zm-6 81l0 275 -94 0 0 -613 151 0c45,0 77,3 99,8 21,5 39,13 55,24 19,14 34,33 45,57 11,24 16,51 16,80 0,29 -5,56 -16,80 -11,25 -26,44 -45,58 -16,11 -34,19 -55,24 -22,5 -54,7 -99,7l-20 0 -37 0z" class="fil1"/></g></g></svg>